<?xml version="1.0" standalone="no"?>
<!DOCTYPE svg PUBLIC "-//W3C//DTD SVG 20010904//EN"
 "http://www.w3.org/TR/2001/REC-SVG-20010904/DTD/svg10.dtd">
<svg version="1.0" xmlns="http://www.w3.org/2000/svg"
 width="427.000000pt" height="427.000000pt" viewBox="0 0 427.000000 427.000000"
 preserveAspectRatio="xMidYMid meet">

<g transform="translate(0.000000,427.000000) scale(0.100000,-0.100000)"
fill="#000000" stroke="none">
<path d="M1886 3885 c-41 -42 -36 -52 100 -182 71 -68 154 -142 184 -165 61
-46 133 -112 593 -540 186 -174 326 -298 338 -298 10 0 26 11 34 24 20 31 12
49 -47 100 -24 21 -83 77 -133 125 -49 48 -180 170 -290 271 -110 101 -246
227 -303 279 -69 64 -105 105 -109 123 -3 17 -41 62 -102 122 -131 128 -158
149 -181 143 -11 -3 -23 -1 -26 4 -8 14 -41 11 -58 -6z m599 -585 c283 -259
528 -491 539 -509 5 -9 -35 27 -90 79 -54 52 -216 203 -359 335 -244 226 -405
378 -326 309 20 -17 126 -114 236 -214z"/>
<path d="M1814 3394 c-18 -14 -18 -15 4 -4 12 6 22 13 22 15 0 8 -5 6 -26 -11z"/>
<path d="M1880 3406 c0 -2 7 -7 16 -10 8 -3 12 -2 9 4 -6 10 -25 14 -25 6z"/>
<path d="M1920 3382 c0 -5 17 -21 38 -36 21 -14 52 -41 69 -59 16 -17 40 -39
52 -49 20 -14 54 -44 180 -155 146 -128 262 -236 372 -345 71 -71 134 -128
140 -128 5 0 7 -4 4 -10 -3 -5 -1 -10 5 -10 6 0 42 -30 79 -67 84 -84 118
-114 154 -137 15 -9 31 -25 35 -35 7 -19 55 -62 110 -100 17 -12 32 -29 32
-37 0 -8 4 -13 9 -12 4 2 30 -17 57 -42 27 -25 65 -57 85 -71 20 -15 62 -53
95 -84 32 -31 73 -68 90 -81 17 -13 41 -44 54 -69 l23 -45 -28 -42 c-16 -24
-49 -65 -74 -92 -66 -70 -98 -104 -261 -287 -41 -46 -122 -136 -180 -199 -58
-63 -121 -133 -140 -155 -92 -104 -262 -288 -332 -361 -86 -90 -108 -129 -32
-59 30 28 87 70 95 70 5 0 9 5 10 10 1 19 41 53 69 59 21 4 35 16 49 43 11 21
36 56 56 78 20 22 51 57 68 78 18 22 51 57 75 80 23 22 42 46 42 54 0 7 4 13
9 13 7 0 58 57 175 194 22 27 48 56 56 65 96 105 243 278 290 342 50 67 60 87
60 121 0 40 -5 46 -195 231 -116 112 -194 196 -191 204 3 7 2 13 -2 13 -9 0
-52 33 -91 69 -14 13 -17 18 -6 10 11 -7 1 6 -23 29 -23 23 -46 42 -51 42 -5
0 -27 17 -49 38 -22 20 -55 48 -73 62 -18 14 -51 41 -73 61 -78 68 -119 104
-130 114 -6 6 -40 35 -76 64 -36 30 -67 57 -70 60 -3 4 -36 36 -75 71 -38 35
-90 82 -115 104 -84 77 -275 241 -315 271 -22 17 -44 35 -50 41 -26 27 -105
84 -105 76z"/>
<path d="M2439 2317 c-30 -21 -34 -28 -32 -62 2 -21 11 -51 20 -67 26 -43 93
-89 141 -95 36 -5 45 -2 72 25 57 58 29 138 -68 194 -58 34 -89 35 -133 5z
m100 -32 c64 -32 107 -113 78 -143 -15 -14 -20 -13 -56 12 -105 73 -123 184
-22 131z"/>
<path d="M2275 2124 c-25 -25 -45 -50 -45 -55 0 -5 12 -15 28 -23 15 -9 56
-43 92 -76 54 -50 69 -60 90 -55 14 4 25 7 26 8 0 1 8 13 17 27 30 43 15 143
-27 185 -21 21 -62 35 -102 35 -28 0 -43 -9 -79 -46z m152 -29 c25 -44 30 -94
11 -113 -10 -10 -25 0 -70 45 -32 32 -58 61 -58 65 0 13 63 49 80 46 8 -2 25
-21 37 -43z"/>
<path d="M2102 1940 c-42 -26 -48 -42 -32 -93 32 -110 174 -171 230 -99 48 61
0 157 -99 198 -44 19 -60 18 -99 -6z m86 -24 c77 -40 124 -141 75 -160 -19 -8
-53 13 -99 62 -70 74 -54 139 24 98z"/>
<path d="M1983 1828 c-30 -33 -83 -110 -83 -120 0 -13 22 -9 41 8 17 15 23 12
97 -55 74 -67 112 -85 127 -61 4 6 -32 49 -79 95 l-85 85 20 35 c20 34 20 35
2 35 -11 0 -29 -10 -40 -22z"/>
<path d="M2732 612 c-6 -14 -11 -26 -9 -26 1 -1 34 -22 72 -47 69 -46 247
-154 294 -179 21 -11 26 -10 38 6 7 10 13 23 13 30 0 7 -39 34 -87 61 -49 26
-128 72 -178 103 -134 85 -128 83 -143 52z"/>
</g>
</svg>
